<?xml version="1.0" encoding="UTF-8" standalone="no"?>
<!DOCTYPE svg PUBLIC "-//W3C//DTD SVG 1.1//EN"
 "http://www.w3.org/Graphics/SVG/1.1/DTD/svg11.dtd">
<!-- Generated by graphviz version 2.43.0 (0)
 -->
<!-- Title: %3 Pages: 1 -->
<svg width="5566pt" height="135pt"
 viewBox="0.00 0.00 5566.00 135.00" xmlns="http://www.w3.org/2000/svg" xmlns:xlink="http://www.w3.org/1999/xlink">
<g id="graph0" class="graph" transform="scale(1 1) rotate(0) translate(4 131)">
<title>%3</title>
<!-- 140271827480304 -->
<g id="node1" class="node">
<title>140271827480304</title>
<polygon fill="none" stroke="black" points="5468,-83 5325,-83 5325,-47 5468,-47 5468,-83"/>
<text text-anchor="middle" x="5396.5" y="-61.3" font-family="Times,serif" font-size="14.00">Payment Handled</text>
</g>
<!-- 140271835335816 -->
<g id="node32" class="node">
<title>140271835335816</title>
<ellipse fill="none" stroke="black" cx="5531" cy="-65" rx="27" ry="27"/>
</g>
<!-- 140271827480304&#45;&gt;140271835335816 -->
<g id="edge1" class="edge">
<title>140271827480304&#45;&gt;140271835335816</title>
<path fill="none" stroke="black" d="M5468.02,-65C5476.96,-65 5485.79,-65 5493.87,-65"/>
<polygon fill="black" stroke="black" points="5493.99,-68.5 5503.99,-65 5493.99,-61.5 5493.99,-68.5"/>
</g>
<!-- 140271835335872 -->
<g id="node2" class="node">
<title>140271835335872</title>
<polygon fill="none" stroke="black" points="799,-81 488,-81 488,-45 799,-45 799,-81"/>
<text text-anchor="middle" x="643.5" y="-59.3" font-family="Times,serif" font-size="14.00">Permit APPROVED by ADMINISTRATION</text>
</g>
<!-- 140271837718568 -->
<g id="node20" class="node">
<title>140271837718568</title>
<ellipse fill="none" stroke="black" cx="862" cy="-63" rx="27" ry="27"/>
</g>
<!-- 140271835335872&#45;&gt;140271837718568 -->
<g id="edge2" class="edge">
<title>140271835335872&#45;&gt;140271837718568</title>
<path fill="none" stroke="black" d="M799.25,-63C808.32,-63 816.84,-63 824.5,-63"/>
<polygon fill="black" stroke="black" points="824.71,-66.5 834.71,-63 824.71,-59.5 824.71,-66.5"/>
</g>
<!-- 140271835335032 -->
<g id="node3" class="node">
<title>140271835335032</title>
<polygon fill="none" stroke="black" points="1410,-116 1105,-116 1105,-80 1410,-80 1410,-116"/>
<text text-anchor="middle" x="1257.5" y="-94.3" font-family="Times,serif" font-size="14.00">Permit APPROVED by BUDGET OWNER</text>
</g>
<!-- 140271827537648 -->
<g id="node35" class="node">
<title>140271827537648</title>
<ellipse fill="none" stroke="black" cx="1473" cy="-97" rx="27" ry="27"/>
</g>
<!-- 140271835335032&#45;&gt;140271827537648 -->
<g id="edge3" class="edge">
<title>140271835335032&#45;&gt;140271827537648</title>
<path fill="none" stroke="black" d="M1410.25,-97.29C1419.49,-97.25 1428.19,-97.21 1435.97,-97.17"/>
<polygon fill="black" stroke="black" points="1436,-100.67 1445.98,-97.12 1435.97,-93.67 1436,-100.67"/>
</g>
<!-- 140271835336040 -->
<g id="node4" class="node">
<title>140271835336040</title>
<polygon fill="none" stroke="black" points="1992,-82 1716,-82 1716,-46 1992,-46 1992,-82"/>
<text text-anchor="middle" x="1854" y="-60.3" font-family="Times,serif" font-size="14.00">Permit APPROVED by SUPERVISOR</text>
</g>
<!-- 140271827537872 -->
<g id="node26" class="node">
<title>140271827537872</title>
<ellipse fill="none" stroke="black" cx="2055" cy="-64" rx="27" ry="27"/>
</g>
<!-- 140271835336040&#45;&gt;140271827537872 -->
<g id="edge4" class="edge">
<title>140271835336040&#45;&gt;140271827537872</title>
<path fill="none" stroke="black" d="M1992.13,-64C2001.29,-64 2009.96,-64 2017.74,-64"/>
<polygon fill="black" stroke="black" points="2017.77,-67.5 2027.77,-64 2017.77,-60.5 2017.77,-67.5"/>
</g>
<!-- 140271835334416 -->
<g id="node5" class="node">
<title>140271835334416</title>
<polygon fill="none" stroke="black" points="2427,-82 2118,-82 2118,-46 2427,-46 2427,-82"/>
<text text-anchor="middle" x="2272.5" y="-60.3" font-family="Times,serif" font-size="14.00">Permit FINAL_APPROVED by DIRECTOR</text>
</g>
<!-- 140271837719240 -->
<g id="node30" class="node">
<title>140271837719240</title>
<ellipse fill="none" stroke="black" cx="2490" cy="-64" rx="27" ry="27"/>
</g>
<!-- 140271835334416&#45;&gt;140271837719240 -->
<g id="edge5" class="edge">
<title>140271835334416&#45;&gt;140271837719240</title>
<path fill="none" stroke="black" d="M2427.25,-64C2436.31,-64 2444.83,-64 2452.49,-64"/>
<polygon fill="black" stroke="black" points="2452.7,-67.5 2462.7,-64 2452.7,-60.5 2452.7,-67.5"/>
</g>
<!-- 140271835334640 -->
<g id="node6" class="node">
<title>140271835334640</title>
<polygon fill="none" stroke="black" points="362,-81 90,-81 90,-45 362,-45 362,-81"/>
<text text-anchor="middle" x="226" y="-59.3" font-family="Times,serif" font-size="14.00">Permit SUBMITTED by EMPLOYEE</text>
</g>
<!-- 140271827479912 -->
<g id="node23" class="node">
<title>140271827479912</title>
<ellipse fill="none" stroke="black" cx="425" cy="-63" rx="27" ry="27"/>
</g>
<!-- 140271835334640&#45;&gt;140271827479912 -->
<g id="edge6" class="edge">
<title>140271835334640&#45;&gt;140271827479912</title>
<path fill="none" stroke="black" d="M362.21,-63C371.35,-63 380,-63 387.77,-63"/>
<polygon fill="black" stroke="black" points="387.78,-66.5 397.78,-63 387.78,-59.5 387.78,-66.5"/>
</g>
<!-- 140271827478960 -->
<g id="node7" class="node">
<title>140271827478960</title>
<polygon fill="none" stroke="black" points="3474,-82 3057,-82 3057,-46 3474,-46 3474,-82"/>
<text text-anchor="middle" x="3265.5" y="-60.3" font-family="Times,serif" font-size="14.00">Request For Payment APPROVED by ADMINISTRATION</text>
</g>
<!-- 140271837718680 -->
<g id="node21" class="node">
<title>140271837718680</title>
<ellipse fill="none" stroke="black" cx="3537" cy="-64" rx="27" ry="27"/>
</g>
<!-- 140271827478960&#45;&gt;140271837718680 -->
<g id="edge7" class="edge">
<title>140271827478960&#45;&gt;140271837718680</title>
<path fill="none" stroke="black" d="M3474.17,-64C3483.4,-64 3491.98,-64 3499.63,-64"/>
<polygon fill="black" stroke="black" points="3499.79,-67.5 3509.79,-64 3499.79,-60.5 3499.79,-67.5"/>
</g>
<!-- 140271827480192 -->
<g id="node8" class="node">
<title>140271827480192</title>
<polygon fill="none" stroke="black" points="4191,-117 3780,-117 3780,-81 4191,-81 4191,-117"/>
<text text-anchor="middle" x="3985.5" y="-95.3" font-family="Times,serif" font-size="14.00">Request For Payment APPROVED by BUDGET OWNER</text>
</g>
<!-- 140271837718848 -->
<g id="node37" class="node">
<title>140271837718848</title>
<ellipse fill="none" stroke="black" cx="4254" cy="-98" rx="27" ry="27"/>
</g>
<!-- 140271827480192&#45;&gt;140271837718848 -->
<g id="edge8" class="edge">
<title>140271827480192&#45;&gt;140271837718848</title>
<path fill="none" stroke="black" d="M4191.19,-98.23C4200.41,-98.2 4208.97,-98.17 4216.62,-98.14"/>
<polygon fill="black" stroke="black" points="4216.79,-101.64 4226.78,-98.1 4216.77,-94.64 4216.79,-101.64"/>
</g>
<!-- 140271827479968 -->
<g id="node9" class="node">
<title>140271827479968</title>
<polygon fill="none" stroke="black" points="4931,-83 4497,-83 4497,-47 4931,-47 4931,-83"/>
<text text-anchor="middle" x="4714" y="-61.3" font-family="Times,serif" font-size="14.00">Request For Payment FINAL_APPROVED by SUPERVISOR</text>
</g>
<!-- 140271837719576 -->
<g id="node31" class="node">
<title>140271837719576</title>
<ellipse fill="none" stroke="black" cx="4994" cy="-65" rx="27" ry="27"/>
</g>
<!-- 140271827479968&#45;&gt;140271837719576 -->
<g id="edge9" class="edge">
<title>140271827479968&#45;&gt;140271837719576</title>
<path fill="none" stroke="black" d="M4931.3,-65C4940.55,-65 4949.12,-65 4956.76,-65"/>
<polygon fill="black" stroke="black" points="4956.9,-68.5 4966.9,-65 4956.9,-61.5 4956.9,-68.5"/>
</g>
<!-- 140271835333184 -->
<g id="node10" class="node">
<title>140271835333184</title>
<polygon fill="none" stroke="black" points="2931,-82 2553,-82 2553,-46 2931,-46 2931,-82"/>
<text text-anchor="middle" x="2742" y="-60.3" font-family="Times,serif" font-size="14.00">Request For Payment SUBMITTED by EMPLOYEE</text>
</g>
<!-- 140271837720360 -->
<g id="node27" class="node">
<title>140271837720360</title>
<ellipse fill="none" stroke="black" cx="2994" cy="-64" rx="27" ry="27"/>
</g>
<!-- 140271835333184&#45;&gt;140271837720360 -->
<g id="edge10" class="edge">
<title>140271835333184&#45;&gt;140271837720360</title>
<path fill="none" stroke="black" d="M2931.2,-64C2940.44,-64 2949.06,-64 2956.75,-64"/>
<polygon fill="black" stroke="black" points="2956.98,-67.5 2966.98,-64 2956.98,-60.5 2956.98,-67.5"/>
</g>
<!-- 140271827480360 -->
<g id="node11" class="node">
<title>140271827480360</title>
<polygon fill="none" stroke="black" points="5199,-83 5057,-83 5057,-47 5199,-47 5199,-83"/>
<text text-anchor="middle" x="5128" y="-61.3" font-family="Times,serif" font-size="14.00">Request Payment</text>
</g>
<!-- 140271837719016 -->
<g id="node22" class="node">
<title>140271837719016</title>
<ellipse fill="none" stroke="black" cx="5262" cy="-65" rx="27" ry="27"/>
</g>
<!-- 140271827480360&#45;&gt;140271837719016 -->
<g id="edge11" class="edge">
<title>140271827480360&#45;&gt;140271837719016</title>
<path fill="none" stroke="black" d="M5199.25,-65C5208.07,-65 5216.79,-65 5224.77,-65"/>
<polygon fill="black" stroke="black" points="5224.79,-68.5 5234.79,-65 5224.79,-61.5 5224.79,-68.5"/>
</g>
<!-- 140271827480248 -->
<g id="node12" class="node">
<title>140271827480248</title>
<polygon fill="black" stroke="black" points="1500,-51 1446,-51 1446,-15 1500,-15 1500,-51"/>
</g>
<!-- 140271827478904 -->
<g id="node25" class="node">
<title>140271827478904</title>
<ellipse fill="none" stroke="black" cx="1653" cy="-64" rx="27" ry="27"/>
</g>
<!-- 140271827480248&#45;&gt;140271827478904 -->
<g id="edge12" class="edge">
<title>140271827480248&#45;&gt;140271827478904</title>
<path fill="none" stroke="black" d="M1500.26,-37.57C1530.94,-42.92 1581.84,-51.78 1616.14,-57.75"/>
<polygon fill="black" stroke="black" points="1615.75,-61.24 1626.21,-59.51 1616.96,-54.34 1615.75,-61.24"/>
</g>
<!-- 140271827537816 -->
<g id="node13" class="node">
<title>140271827537816</title>
<polygon fill="black" stroke="black" points="1590,-109 1536,-109 1536,-73 1590,-73 1590,-109"/>
</g>
<!-- 140271827537816&#45;&gt;140271827478904 -->
<g id="edge13" class="edge">
<title>140271827537816&#45;&gt;140271827478904</title>
<path fill="none" stroke="black" d="M1590.4,-82.9C1598.79,-80.33 1608.2,-77.44 1617.09,-74.71"/>
<polygon fill="black" stroke="black" points="1618.29,-78 1626.82,-71.72 1616.24,-71.31 1618.29,-78"/>
</g>
<!-- 140271837718904 -->
<g id="node14" class="node">
<title>140271837718904</title>
<polygon fill="black" stroke="black" points="4281,-52 4227,-52 4227,-16 4281,-16 4281,-52"/>
</g>
<!-- 140271837719688 -->
<g id="node29" class="node">
<title>140271837719688</title>
<ellipse fill="none" stroke="black" cx="4434" cy="-65" rx="27" ry="27"/>
</g>
<!-- 140271837718904&#45;&gt;140271837719688 -->
<g id="edge14" class="edge">
<title>140271837718904&#45;&gt;140271837719688</title>
<path fill="none" stroke="black" d="M4281.26,-38.57C4311.94,-43.92 4362.84,-52.78 4397.14,-58.75"/>
<polygon fill="black" stroke="black" points="4396.75,-62.24 4407.21,-60.51 4397.96,-55.34 4396.75,-62.24"/>
</g>
<!-- 140271837717448 -->
<g id="node15" class="node">
<title>140271837717448</title>
<polygon fill="black" stroke="black" points="4371,-110 4317,-110 4317,-74 4371,-74 4371,-110"/>
</g>
<!-- 140271837717448&#45;&gt;140271837719688 -->
<g id="edge15" class="edge">
<title>140271837717448&#45;&gt;140271837719688</title>
<path fill="none" stroke="black" d="M4371.4,-83.9C4379.79,-81.33 4389.2,-78.44 4398.09,-75.71"/>
<polygon fill="black" stroke="black" points="4399.29,-79 4407.82,-72.72 4397.24,-72.31 4399.29,-79"/>
</g>
<!-- 140271837719128 -->
<g id="node16" class="node">
<title>140271837719128</title>
<polygon fill="black" stroke="black" points="979,-112 925,-112 925,-76 979,-76 979,-112"/>
</g>
<!-- 140271827480472 -->
<g id="node24" class="node">
<title>140271827480472</title>
<ellipse fill="none" stroke="black" cx="1042" cy="-99" rx="27" ry="27"/>
</g>
<!-- 140271837719128&#45;&gt;140271827480472 -->
<g id="edge16" class="edge">
<title>140271837719128&#45;&gt;140271827480472</title>
<path fill="none" stroke="black" d="M979.4,-95.5C987.39,-95.95 996.31,-96.46 1004.82,-96.94"/>
<polygon fill="black" stroke="black" points="1004.74,-100.45 1014.92,-97.52 1005.13,-93.46 1004.74,-100.45"/>
</g>
<!-- 140271837718120 -->
<g id="node17" class="node">
<title>140271837718120</title>
<polygon fill="black" stroke="black" points="979,-54 925,-54 925,-18 979,-18 979,-54"/>
</g>
<!-- 140271827480136 -->
<g id="node34" class="node">
<title>140271827480136</title>
<ellipse fill="none" stroke="black" cx="1042" cy="-27" rx="27" ry="27"/>
</g>
<!-- 140271837718120&#45;&gt;140271827480136 -->
<g id="edge17" class="edge">
<title>140271837718120&#45;&gt;140271827480136</title>
<path fill="none" stroke="black" d="M979.4,-33.3C987.39,-32.48 996.31,-31.57 1004.82,-30.7"/>
<polygon fill="black" stroke="black" points="1005.33,-34.17 1014.92,-29.67 1004.61,-27.2 1005.33,-34.17"/>
</g>
<!-- 140271837718344 -->
<g id="node18" class="node">
<title>140271837718344</title>
<polygon fill="black" stroke="black" points="3654,-113 3600,-113 3600,-77 3654,-77 3654,-113"/>
</g>
<!-- 140271837720136 -->
<g id="node28" class="node">
<title>140271837720136</title>
<ellipse fill="none" stroke="black" cx="3717" cy="-100" rx="27" ry="27"/>
</g>
<!-- 140271837718344&#45;&gt;140271837720136 -->
<g id="edge18" class="edge">
<title>140271837718344&#45;&gt;140271837720136</title>
<path fill="none" stroke="black" d="M3654.4,-96.5C3662.39,-96.95 3671.31,-97.46 3679.82,-97.94"/>
<polygon fill="black" stroke="black" points="3679.74,-101.45 3689.92,-98.52 3680.13,-94.46 3679.74,-101.45"/>
</g>
<!-- 140271837717504 -->
<g id="node19" class="node">
<title>140271837717504</title>
<polygon fill="black" stroke="black" points="3654,-55 3600,-55 3600,-19 3654,-19 3654,-55"/>
</g>
<!-- 140271837718232 -->
<g id="node36" class="node">
<title>140271837718232</title>
<ellipse fill="none" stroke="black" cx="3717" cy="-28" rx="27" ry="27"/>
</g>
<!-- 140271837717504&#45;&gt;140271837718232 -->
<g id="edge19" class="edge">
<title>140271837717504&#45;&gt;140271837718232</title>
<path fill="none" stroke="black" d="M3654.4,-34.3C3662.39,-33.48 3671.31,-32.57 3679.82,-31.7"/>
<polygon fill="black" stroke="black" points="3680.33,-35.17 3689.92,-30.67 3679.61,-28.2 3680.33,-35.17"/>
</g>
<!-- 140271837718568&#45;&gt;140271837719128 -->
<g id="edge20" class="edge">
<title>140271837718568&#45;&gt;140271837719128</title>
<path fill="none" stroke="black" d="M887.98,-71.8C896.42,-74.77 906,-78.15 915.11,-81.36"/>
<polygon fill="black" stroke="black" points="914.13,-84.72 924.73,-84.74 916.46,-78.12 914.13,-84.72"/>
</g>
<!-- 140271837718568&#45;&gt;140271837718120 -->
<g id="edge21" class="edge">
<title>140271837718568&#45;&gt;140271837718120</title>
<path fill="none" stroke="black" d="M887.98,-55.34C896.42,-52.75 906,-49.81 915.11,-47.01"/>
<polygon fill="black" stroke="black" points="916.19,-50.34 924.73,-44.06 914.14,-43.65 916.19,-50.34"/>
</g>
<!-- 140271837718680&#45;&gt;140271837718344 -->
<g id="edge22" class="edge">
<title>140271837718680&#45;&gt;140271837718344</title>
<path fill="none" stroke="black" d="M3562.98,-72.8C3571.42,-75.77 3581,-79.15 3590.11,-82.36"/>
<polygon fill="black" stroke="black" points="3589.13,-85.72 3599.73,-85.74 3591.46,-79.12 3589.13,-85.72"/>
</g>
<!-- 140271837718680&#45;&gt;140271837717504 -->
<g id="edge23" class="edge">
<title>140271837718680&#45;&gt;140271837717504</title>
<path fill="none" stroke="black" d="M3562.98,-56.34C3571.42,-53.75 3581,-50.81 3590.11,-48.01"/>
<polygon fill="black" stroke="black" points="3591.19,-51.34 3599.73,-45.06 3589.14,-44.65 3591.19,-51.34"/>
</g>
<!-- 140271837719016&#45;&gt;140271827480304 -->
<g id="edge24" class="edge">
<title>140271837719016&#45;&gt;140271827480304</title>
<path fill="none" stroke="black" d="M5289.18,-65C5296.82,-65 5305.6,-65 5314.78,-65"/>
<polygon fill="black" stroke="black" points="5314.85,-68.5 5324.85,-65 5314.85,-61.5 5314.85,-68.5"/>
</g>
<!-- 140271827479912&#45;&gt;140271835335872 -->
<g id="edge25" class="edge">
<title>140271827479912&#45;&gt;140271835335872</title>
<path fill="none" stroke="black" d="M452.11,-63C459.54,-63 468.22,-63 477.71,-63"/>
<polygon fill="black" stroke="black" points="477.87,-66.5 487.87,-63 477.87,-59.5 477.87,-66.5"/>
</g>
<!-- 140271827480472&#45;&gt;140271835335032 -->
<g id="edge26" class="edge">
<title>140271827480472&#45;&gt;140271835335032</title>
<path fill="none" stroke="black" d="M1069.18,-98.88C1076.62,-98.84 1085.3,-98.8 1094.78,-98.76"/>
<polygon fill="black" stroke="black" points="1094.95,-102.26 1104.93,-98.71 1094.92,-95.26 1094.95,-102.26"/>
</g>
<!-- 140271827478904&#45;&gt;140271835336040 -->
<g id="edge27" class="edge">
<title>140271827478904&#45;&gt;140271835336040</title>
<path fill="none" stroke="black" d="M1680.02,-64C1687.44,-64 1696.11,-64 1705.52,-64"/>
<polygon fill="black" stroke="black" points="1705.59,-67.5 1715.59,-64 1705.59,-60.5 1705.59,-67.5"/>
</g>
<!-- 140271827537872&#45;&gt;140271835334416 -->
<g id="edge28" class="edge">
<title>140271827537872&#45;&gt;140271835334416</title>
<path fill="none" stroke="black" d="M2082.42,-64C2089.69,-64 2098.13,-64 2107.34,-64"/>
<polygon fill="black" stroke="black" points="2107.61,-67.5 2117.61,-64 2107.61,-60.5 2107.61,-67.5"/>
</g>
<!-- 140271837720360&#45;&gt;140271827478960 -->
<g id="edge29" class="edge">
<title>140271837720360&#45;&gt;140271827478960</title>
<path fill="none" stroke="black" d="M3021.33,-64C3028.65,-64 3037.23,-64 3046.71,-64"/>
<polygon fill="black" stroke="black" points="3046.89,-67.5 3056.89,-64 3046.89,-60.5 3046.89,-67.5"/>
</g>
<!-- 140271837720136&#45;&gt;140271827480192 -->
<g id="edge30" class="edge">
<title>140271837720136&#45;&gt;140271827480192</title>
<path fill="none" stroke="black" d="M3744.04,-99.9C3751.38,-99.87 3759.99,-99.84 3769.51,-99.81"/>
<polygon fill="black" stroke="black" points="3769.76,-103.31 3779.74,-99.77 3769.73,-96.31 3769.76,-103.31"/>
</g>
<!-- 140271837719688&#45;&gt;140271827479968 -->
<g id="edge31" class="edge">
<title>140271837719688&#45;&gt;140271827479968</title>
<path fill="none" stroke="black" d="M4461.15,-65C4468.48,-65 4477.07,-65 4486.58,-65"/>
<polygon fill="black" stroke="black" points="4486.81,-68.5 4496.81,-65 4486.81,-61.5 4486.81,-68.5"/>
</g>
<!-- 140271837719240&#45;&gt;140271835333184 -->
<g id="edge32" class="edge">
<title>140271837719240&#45;&gt;140271835333184</title>
<path fill="none" stroke="black" d="M2517.28,-64C2524.63,-64 2533.23,-64 2542.7,-64"/>
<polygon fill="black" stroke="black" points="2542.87,-67.5 2552.87,-64 2542.87,-60.5 2542.87,-67.5"/>
</g>
<!-- 140271837719576&#45;&gt;140271827480360 -->
<g id="edge33" class="edge">
<title>140271837719576&#45;&gt;140271827480360</title>
<path fill="none" stroke="black" d="M5021.08,-65C5028.75,-65 5037.57,-65 5046.78,-65"/>
<polygon fill="black" stroke="black" points="5046.89,-68.5 5056.89,-65 5046.89,-61.5 5046.89,-68.5"/>
</g>
<!-- 140271835334304 -->
<g id="node33" class="node">
<title>140271835334304</title>
<ellipse fill="none" stroke="black" cx="27" cy="-63" rx="27" ry="27"/>
</g>
<!-- 140271835334304&#45;&gt;140271835334640 -->
<g id="edge34" class="edge">
<title>140271835334304&#45;&gt;140271835334640</title>
<path fill="none" stroke="black" d="M54.16,-63C61.62,-63 70.31,-63 79.74,-63"/>
<polygon fill="black" stroke="black" points="79.83,-66.5 89.83,-63 79.83,-59.5 79.83,-66.5"/>
</g>
<!-- 140271827480136&#45;&gt;140271827480248 -->
<g id="edge35" class="edge">
<title>140271827480136&#45;&gt;140271827480248</title>
<path fill="none" stroke="black" d="M1069.19,-27.37C1142.72,-28.39 1351.21,-31.31 1435.74,-32.49"/>
<polygon fill="black" stroke="black" points="1435.83,-35.99 1445.88,-32.63 1435.93,-29 1435.83,-35.99"/>
</g>
<!-- 140271827537648&#45;&gt;140271827537816 -->
<g id="edge36" class="edge">
<title>140271827537648&#45;&gt;140271827537816</title>
<path fill="none" stroke="black" d="M1500.4,-95.2C1508.39,-94.66 1517.31,-94.05 1525.82,-93.47"/>
<polygon fill="black" stroke="black" points="1526.18,-96.95 1535.92,-92.78 1525.7,-89.97 1526.18,-96.95"/>
</g>
<!-- 140271837718232&#45;&gt;140271837718904 -->
<g id="edge37" class="edge">
<title>140271837718232&#45;&gt;140271837718904</title>
<path fill="none" stroke="black" d="M3744.17,-28.29C3831.9,-29.28 4115.78,-32.46 4216.86,-33.59"/>
<polygon fill="black" stroke="black" points="4216.85,-37.09 4226.88,-33.71 4216.92,-30.1 4216.85,-37.09"/>
</g>
<!-- 140271837718848&#45;&gt;140271837717448 -->
<g id="edge38" class="edge">
<title>140271837718848&#45;&gt;140271837717448</title>
<path fill="none" stroke="black" d="M4281.4,-96.2C4289.39,-95.66 4298.31,-95.05 4306.82,-94.47"/>
<polygon fill="black" stroke="black" points="4307.18,-97.95 4316.92,-93.78 4306.7,-90.97 4307.18,-97.95"/>
</g>
</g>
</svg>
