<?xml version="1.0" encoding="UTF-8" standalone="no"?>
<!DOCTYPE svg PUBLIC "-//W3C//DTD SVG 1.1//EN"
 "http://www.w3.org/Graphics/SVG/1.1/DTD/svg11.dtd">
<!-- Generated by graphviz version 2.43.0 (0)
 -->
<!-- Title: %3 Pages: 1 -->
<svg width="4327pt" height="242pt"
 viewBox="0.00 0.00 4327.00 242.00" xmlns="http://www.w3.org/2000/svg" xmlns:xlink="http://www.w3.org/1999/xlink">
<g id="graph0" class="graph" transform="scale(1 1) rotate(0) translate(4 238)">
<title>%3</title>
<!-- 140633949599840 -->
<g id="node1" class="node">
<title>140633949599840</title>
<polygon fill="none" stroke="black" points="4229,-82 4122,-82 4122,-46 4229,-46 4229,-82"/>
<text text-anchor="middle" x="4175.5" y="-60.3" font-family="Times,serif" font-size="14.00">Pay Handled</text>
</g>
<!-- 140633954359504 -->
<g id="node38" class="node">
<title>140633954359504</title>
<ellipse fill="none" stroke="black" cx="4292" cy="-64" rx="27" ry="27"/>
</g>
<!-- 140633949599840&#45;&gt;140633954359504 -->
<g id="edge1" class="edge">
<title>140633949599840&#45;&gt;140633954359504</title>
<path fill="none" stroke="black" d="M4229.06,-64C4237.72,-64 4246.53,-64 4254.69,-64"/>
<polygon fill="black" stroke="black" points="4254.96,-67.5 4264.96,-64 4254.96,-60.5 4254.96,-67.5"/>
</g>
<!-- 140633954360288 -->
<g id="node2" class="node">
<title>140633954360288</title>
<polygon fill="none" stroke="black" points="576,-126 377,-126 377,-90 576,-90 576,-126"/>
<text text-anchor="middle" x="476.5" y="-104.3" font-family="Times,serif" font-size="14.00">Permit APPRD by ADMIN</text>
</g>
<!-- 140633866923816 -->
<g id="node25" class="node">
<title>140633866923816</title>
<ellipse fill="none" stroke="black" cx="639" cy="-114" rx="27" ry="27"/>
</g>
<!-- 140633954360288&#45;&gt;140633866923816 -->
<g id="edge2" class="edge">
<title>140633954360288&#45;&gt;140633866923816</title>
<path fill="none" stroke="black" d="M576.41,-111.7C585.36,-112.03 593.99,-112.35 601.82,-112.65"/>
<polygon fill="black" stroke="black" points="601.81,-116.15 611.93,-113.03 602.07,-109.15 601.81,-116.15"/>
</g>
<!-- 140633949601016 -->
<g id="node3" class="node">
<title>140633949601016</title>
<polygon fill="none" stroke="black" points="1156,-153 882,-153 882,-117 1156,-117 1156,-153"/>
<text text-anchor="middle" x="1019" y="-131.3" font-family="Times,serif" font-size="14.00">Permit APPRD by BUDGET OWNER</text>
</g>
<!-- 140633866703928 -->
<g id="node41" class="node">
<title>140633866703928</title>
<ellipse fill="none" stroke="black" cx="1219" cy="-135" rx="27" ry="27"/>
</g>
<!-- 140633949601016&#45;&gt;140633866703928 -->
<g id="edge3" class="edge">
<title>140633949601016&#45;&gt;140633866703928</title>
<path fill="none" stroke="black" d="M1156.17,-135C1165.32,-135 1173.97,-135 1181.75,-135"/>
<polygon fill="black" stroke="black" points="1181.78,-138.5 1191.78,-135 1181.78,-131.5 1181.78,-138.5"/>
</g>
<!-- 140633949601184 -->
<g id="node4" class="node">
<title>140633949601184</title>
<polygon fill="none" stroke="black" points="1097,-81 941,-81 941,-45 1097,-45 1097,-81"/>
<text text-anchor="middle" x="1019" y="-59.3" font-family="Times,serif" font-size="14.00">Permit APPRD by S</text>
</g>
<!-- 140633866921688 -->
<g id="node31" class="node">
<title>140633866921688</title>
<ellipse fill="none" stroke="black" cx="1219" cy="-63" rx="27" ry="27"/>
</g>
<!-- 140633949601184&#45;&gt;140633866921688 -->
<g id="edge4" class="edge">
<title>140633949601184&#45;&gt;140633866921688</title>
<path fill="none" stroke="black" d="M1097.12,-63C1126.12,-63 1157.76,-63 1181.39,-63"/>
<polygon fill="black" stroke="black" points="1181.65,-66.5 1191.65,-63 1181.65,-59.5 1181.65,-66.5"/>
</g>
<!-- 140633949600568 -->
<g id="node5" class="node">
<title>140633949600568</title>
<polygon fill="none" stroke="black" points="1514,-81 1282,-81 1282,-45 1514,-45 1514,-81"/>
<text text-anchor="middle" x="1398" y="-59.3" font-family="Times,serif" font-size="14.00">Permit F_APRD by DIRECTOR</text>
</g>
<!-- 140633866923480 -->
<g id="node44" class="node">
<title>140633866923480</title>
<ellipse fill="none" stroke="black" cx="1577" cy="-63" rx="27" ry="27"/>
</g>
<!-- 140633949600568&#45;&gt;140633866923480 -->
<g id="edge5" class="edge">
<title>140633949600568&#45;&gt;140633866923480</title>
<path fill="none" stroke="black" d="M1514.09,-63C1523.17,-63 1531.84,-63 1539.66,-63"/>
<polygon fill="black" stroke="black" points="1539.76,-66.5 1549.76,-63 1539.76,-59.5 1539.76,-66.5"/>
</g>
<!-- 140633949600624 -->
<g id="node6" class="node">
<title>140633949600624</title>
<polygon fill="none" stroke="black" points="1803,-150 1640,-150 1640,-114 1803,-114 1803,-150"/>
<text text-anchor="middle" x="1721.5" y="-128.3" font-family="Times,serif" font-size="14.00">Permit F_APRD by S</text>
</g>
<!-- 140633866923312 -->
<g id="node45" class="node">
<title>140633866923312</title>
<ellipse fill="none" stroke="black" cx="1866" cy="-128" rx="27" ry="27"/>
</g>
<!-- 140633949600624&#45;&gt;140633866923312 -->
<g id="edge6" class="edge">
<title>140633949600624&#45;&gt;140633866923312</title>
<path fill="none" stroke="black" d="M1803.33,-129.73C1812.14,-129.48 1820.75,-129.24 1828.61,-129.02"/>
<polygon fill="black" stroke="black" points="1828.91,-132.51 1838.81,-128.74 1828.71,-125.52 1828.91,-132.51"/>
</g>
<!-- 140633954361240 -->
<g id="node7" class="node">
<title>140633954361240</title>
<polygon fill="none" stroke="black" points="251,-107 90,-107 90,-71 251,-71 251,-107"/>
<text text-anchor="middle" x="170.5" y="-85.3" font-family="Times,serif" font-size="14.00">Permit SBMTD by E</text>
</g>
<!-- 140633949601576 -->
<g id="node28" class="node">
<title>140633949601576</title>
<ellipse fill="none" stroke="black" cx="314" cy="-105" rx="27" ry="27"/>
</g>
<!-- 140633954361240&#45;&gt;140633949601576 -->
<g id="edge7" class="edge">
<title>140633954361240&#45;&gt;140633949601576</title>
<path fill="none" stroke="black" d="M251.35,-98.03C260.33,-99.04 269.11,-100.04 277.1,-100.94"/>
<polygon fill="black" stroke="black" points="276.77,-104.43 287.1,-102.07 277.55,-97.47 276.77,-104.43"/>
</g>
<!-- 140633949599672 -->
<g id="node8" class="node">
<title>140633949599672</title>
<polygon fill="none" stroke="black" points="2671,-81 2434,-81 2434,-45 2671,-45 2671,-81"/>
<text text-anchor="middle" x="2552.5" y="-59.3" font-family="Times,serif" font-size="14.00">Req For Pay APPRD by ADMIN</text>
</g>
<!-- 140633954330664 -->
<g id="node26" class="node">
<title>140633954330664</title>
<ellipse fill="none" stroke="black" cx="2734" cy="-63" rx="27" ry="27"/>
</g>
<!-- 140633949599672&#45;&gt;140633954330664 -->
<g id="edge8" class="edge">
<title>140633949599672&#45;&gt;140633954330664</title>
<path fill="none" stroke="black" d="M2671.23,-63C2680.31,-63 2688.97,-63 2696.78,-63"/>
<polygon fill="black" stroke="black" points="2696.86,-66.5 2706.86,-63 2696.86,-59.5 2696.86,-66.5"/>
</g>
<!-- 140633949601240 -->
<g id="node9" class="node">
<title>140633949601240</title>
<polygon fill="none" stroke="black" points="3289,-116 2977,-116 2977,-80 3289,-80 3289,-116"/>
<text text-anchor="middle" x="3133" y="-94.3" font-family="Times,serif" font-size="14.00">Req For Pay APPRD by BUDGET OWNER</text>
</g>
<!-- 140633866922248 -->
<g id="node43" class="node">
<title>140633866922248</title>
<ellipse fill="none" stroke="black" cx="3352" cy="-97" rx="27" ry="27"/>
</g>
<!-- 140633949601240&#45;&gt;140633866922248 -->
<g id="edge9" class="edge">
<title>140633949601240&#45;&gt;140633866922248</title>
<path fill="none" stroke="black" d="M3289.11,-97.29C3298.39,-97.24 3307.11,-97.2 3314.92,-97.17"/>
<polygon fill="black" stroke="black" points="3314.97,-100.67 3324.96,-97.12 3314.94,-93.67 3314.97,-100.67"/>
</g>
<!-- 140633949600232 -->
<g id="node10" class="node">
<title>140633949600232</title>
<polygon fill="none" stroke="black" points="3796,-82 3595,-82 3595,-46 3796,-46 3796,-82"/>
<text text-anchor="middle" x="3695.5" y="-60.3" font-family="Times,serif" font-size="14.00">Req For Pay F_APRD by S</text>
</g>
<!-- 140633866922136 -->
<g id="node37" class="node">
<title>140633866922136</title>
<ellipse fill="none" stroke="black" cx="3859" cy="-64" rx="27" ry="27"/>
</g>
<!-- 140633949600232&#45;&gt;140633866922136 -->
<g id="edge10" class="edge">
<title>140633949600232&#45;&gt;140633866922136</title>
<path fill="none" stroke="black" d="M3796.02,-64C3805.04,-64 3813.72,-64 3821.59,-64"/>
<polygon fill="black" stroke="black" points="3821.77,-67.5 3831.77,-64 3821.77,-60.5 3821.77,-67.5"/>
</g>
<!-- 140633949601520 -->
<g id="node11" class="node">
<title>140633949601520</title>
<polygon fill="none" stroke="black" points="2308,-81 2109,-81 2109,-45 2308,-45 2308,-81"/>
<text text-anchor="middle" x="2208.5" y="-59.3" font-family="Times,serif" font-size="14.00">Req For Pay SBMTD by E</text>
</g>
<!-- 140633866706392 -->
<g id="node33" class="node">
<title>140633866706392</title>
<ellipse fill="none" stroke="black" cx="2371" cy="-63" rx="27" ry="27"/>
</g>
<!-- 140633949601520&#45;&gt;140633866706392 -->
<g id="edge11" class="edge">
<title>140633949601520&#45;&gt;140633866706392</title>
<path fill="none" stroke="black" d="M2308.41,-63C2317.36,-63 2325.99,-63 2333.82,-63"/>
<polygon fill="black" stroke="black" points="2333.93,-66.5 2343.93,-63 2333.93,-59.5 2333.93,-66.5"/>
</g>
<!-- 140633949600400 -->
<g id="node12" class="node">
<title>140633949600400</title>
<polygon fill="none" stroke="black" points="3996,-82 3922,-82 3922,-46 3996,-46 3996,-82"/>
<text text-anchor="middle" x="3959" y="-60.3" font-family="Times,serif" font-size="14.00">Req Pay</text>
</g>
<!-- 140633866922528 -->
<g id="node27" class="node">
<title>140633866922528</title>
<ellipse fill="none" stroke="black" cx="4059" cy="-64" rx="27" ry="27"/>
</g>
<!-- 140633949600400&#45;&gt;140633866922528 -->
<g id="edge12" class="edge">
<title>140633949600400&#45;&gt;140633866922528</title>
<path fill="none" stroke="black" d="M3996.21,-64C4004.49,-64 4013.3,-64 4021.59,-64"/>
<polygon fill="black" stroke="black" points="4021.73,-67.5 4031.73,-64 4021.73,-60.5 4021.73,-67.5"/>
</g>
<!-- 140633949600288 -->
<g id="node13" class="node">
<title>140633949600288</title>
<polygon fill="black" stroke="black" points="1246,-218 1192,-218 1192,-182 1246,-182 1246,-218"/>
</g>
<!-- 140633949601408 -->
<g id="node32" class="node">
<title>140633949601408</title>
<ellipse fill="none" stroke="black" cx="1577" cy="-135" rx="27" ry="27"/>
</g>
<!-- 140633949600288&#45;&gt;140633949601408 -->
<g id="edge13" class="edge">
<title>140633949600288&#45;&gt;140633949601408</title>
<path fill="none" stroke="black" d="M1246.04,-199.09C1297.93,-196.75 1417.51,-188.66 1514,-162 1523.83,-159.28 1534.12,-155.3 1543.43,-151.23"/>
<polygon fill="black" stroke="black" points="1545.07,-154.33 1552.72,-147 1542.17,-147.96 1545.07,-154.33"/>
</g>
<!-- 140633954328872 -->
<g id="node14" class="node">
<title>140633954328872</title>
<polygon fill="black" stroke="black" points="756,-213 702,-213 702,-177 756,-177 756,-213"/>
</g>
<!-- 140633949601072 -->
<g id="node40" class="node">
<title>140633949601072</title>
<ellipse fill="none" stroke="black" cx="819" cy="-207" rx="27" ry="27"/>
</g>
<!-- 140633954328872&#45;&gt;140633949601072 -->
<g id="edge14" class="edge">
<title>140633954328872&#45;&gt;140633949601072</title>
<path fill="none" stroke="black" d="M756.4,-198.6C764.47,-199.7 773.47,-200.93 782.05,-202.1"/>
<polygon fill="black" stroke="black" points="781.84,-205.6 792.22,-203.48 782.79,-198.67 781.84,-205.6"/>
</g>
<!-- 140633954331280 -->
<g id="node15" class="node">
<title>140633954331280</title>
<polygon fill="black" stroke="black" points="2851,-112 2797,-112 2797,-76 2851,-76 2851,-112"/>
</g>
<!-- 140633866920960 -->
<g id="node34" class="node">
<title>140633866920960</title>
<ellipse fill="none" stroke="black" cx="2914" cy="-99" rx="27" ry="27"/>
</g>
<!-- 140633954331280&#45;&gt;140633866920960 -->
<g id="edge15" class="edge">
<title>140633954331280&#45;&gt;140633866920960</title>
<path fill="none" stroke="black" d="M2851.4,-95.5C2859.39,-95.95 2868.31,-96.46 2876.82,-96.94"/>
<polygon fill="black" stroke="black" points="2876.74,-100.45 2886.92,-97.52 2877.13,-93.46 2876.74,-100.45"/>
</g>
<!-- 140633954329992 -->
<g id="node16" class="node">
<title>140633954329992</title>
<polygon fill="black" stroke="black" points="2851,-54 2797,-54 2797,-18 2851,-18 2851,-54"/>
</g>
<!-- 140633866922024 -->
<g id="node42" class="node">
<title>140633866922024</title>
<ellipse fill="none" stroke="black" cx="2914" cy="-27" rx="27" ry="27"/>
</g>
<!-- 140633954329992&#45;&gt;140633866922024 -->
<g id="edge16" class="edge">
<title>140633954329992&#45;&gt;140633866922024</title>
<path fill="none" stroke="black" d="M2851.4,-33.3C2859.39,-32.48 2868.31,-31.57 2876.82,-30.7"/>
<polygon fill="black" stroke="black" points="2877.33,-34.17 2886.92,-29.67 2876.61,-27.2 2877.33,-34.17"/>
</g>
<!-- 140633866704544 -->
<g id="node17" class="node">
<title>140633866704544</title>
<polygon fill="black" stroke="black" points="1425,-153 1371,-153 1371,-117 1425,-117 1425,-153"/>
</g>
<!-- 140633866704544&#45;&gt;140633949601408 -->
<g id="edge17" class="edge">
<title>140633866704544&#45;&gt;140633949601408</title>
<path fill="none" stroke="black" d="M1425.12,-135C1455.44,-135 1505.66,-135 1539.75,-135"/>
<polygon fill="black" stroke="black" points="1539.78,-138.5 1549.78,-135 1539.78,-131.5 1539.78,-138.5"/>
</g>
<!-- 140633866703536 -->
<g id="node18" class="node">
<title>140633866703536</title>
<polygon fill="black" stroke="black" points="1893,-81 1839,-81 1839,-45 1893,-45 1893,-81"/>
</g>
<!-- 140633866706280 -->
<g id="node36" class="node">
<title>140633866706280</title>
<ellipse fill="none" stroke="black" cx="2046" cy="-63" rx="27" ry="27"/>
</g>
<!-- 140633866703536&#45;&gt;140633866706280 -->
<g id="edge18" class="edge">
<title>140633866703536&#45;&gt;140633866706280</title>
<path fill="none" stroke="black" d="M1893.26,-63C1923.85,-63 1974.55,-63 2008.84,-63"/>
<polygon fill="black" stroke="black" points="2008.92,-66.5 2018.92,-63 2008.92,-59.5 2008.92,-66.5"/>
</g>
<!-- 140633866923536 -->
<g id="node19" class="node">
<title>140633866923536</title>
<polygon fill="black" stroke="black" points="1983,-136 1929,-136 1929,-100 1983,-100 1983,-136"/>
</g>
<!-- 140633866923536&#45;&gt;140633866706280 -->
<g id="edge19" class="edge">
<title>140633866923536&#45;&gt;140633866706280</title>
<path fill="none" stroke="black" d="M1983.4,-101.5C1993.11,-95.43 2004.19,-88.5 2014.25,-82.22"/>
<polygon fill="black" stroke="black" points="2016.15,-85.16 2022.77,-76.89 2012.44,-79.22 2016.15,-85.16"/>
</g>
<!-- 140633866923032 -->
<g id="node20" class="node">
<title>140633866923032</title>
<polygon fill="black" stroke="black" points="341,-49 287,-49 287,-13 341,-13 341,-49"/>
</g>
<!-- 140633866923032&#45;&gt;140633866706280 -->
<g id="edge20" class="edge">
<title>140633866923032&#45;&gt;140633866706280</title>
<path fill="none" stroke="black" d="M341.33,-27.85C396.35,-21.55 527.53,-8 638,-8 638,-8 638,-8 1867,-8 1919.77,-8 1977.58,-30.34 2012.57,-46.55"/>
<polygon fill="black" stroke="black" points="2011.28,-49.81 2021.81,-50.93 2014.28,-43.48 2011.28,-49.81"/>
</g>
<!-- 140633866920624 -->
<g id="node21" class="node">
<title>140633866920624</title>
<polygon fill="black" stroke="black" points="3379,-51 3325,-51 3325,-15 3379,-15 3379,-51"/>
</g>
<!-- 140633866921128 -->
<g id="node35" class="node">
<title>140633866921128</title>
<ellipse fill="none" stroke="black" cx="3532" cy="-64" rx="27" ry="27"/>
</g>
<!-- 140633866920624&#45;&gt;140633866921128 -->
<g id="edge21" class="edge">
<title>140633866920624&#45;&gt;140633866921128</title>
<path fill="none" stroke="black" d="M3379.26,-37.57C3409.94,-42.92 3460.84,-51.78 3495.14,-57.75"/>
<polygon fill="black" stroke="black" points="3494.75,-61.24 3505.21,-59.51 3495.96,-54.34 3494.75,-61.24"/>
</g>
<!-- 140633866920400 -->
<g id="node22" class="node">
<title>140633866920400</title>
<polygon fill="black" stroke="black" points="3469,-109 3415,-109 3415,-73 3469,-73 3469,-109"/>
</g>
<!-- 140633866920400&#45;&gt;140633866921128 -->
<g id="edge22" class="edge">
<title>140633866920400&#45;&gt;140633866921128</title>
<path fill="none" stroke="black" d="M3469.4,-82.9C3477.79,-80.33 3487.2,-77.44 3496.09,-74.71"/>
<polygon fill="black" stroke="black" points="3497.29,-78 3505.82,-71.72 3495.24,-71.31 3497.29,-78"/>
</g>
<!-- 140633954329488 -->
<g id="node23" class="node">
<title>140633954329488</title>
<polygon fill="black" stroke="black" points="756,-148 702,-148 702,-112 756,-112 756,-148"/>
</g>
<!-- 140633949601744 -->
<g id="node29" class="node">
<title>140633949601744</title>
<ellipse fill="none" stroke="black" cx="819" cy="-135" rx="27" ry="27"/>
</g>
<!-- 140633954329488&#45;&gt;140633949601744 -->
<g id="edge23" class="edge">
<title>140633954329488&#45;&gt;140633949601744</title>
<path fill="none" stroke="black" d="M756.4,-131.5C764.39,-131.95 773.31,-132.46 781.82,-132.94"/>
<polygon fill="black" stroke="black" points="781.74,-136.45 791.92,-133.52 782.13,-129.46 781.74,-136.45"/>
</g>
<!-- 140633954331336 -->
<g id="node24" class="node">
<title>140633954331336</title>
<polygon fill="black" stroke="black" points="756,-90 702,-90 702,-54 756,-54 756,-90"/>
</g>
<!-- 140633949599392 -->
<g id="node30" class="node">
<title>140633949599392</title>
<ellipse fill="none" stroke="black" cx="819" cy="-63" rx="27" ry="27"/>
</g>
<!-- 140633954331336&#45;&gt;140633949599392 -->
<g id="edge24" class="edge">
<title>140633954331336&#45;&gt;140633949599392</title>
<path fill="none" stroke="black" d="M756.4,-69.3C764.39,-68.48 773.31,-67.57 781.82,-66.7"/>
<polygon fill="black" stroke="black" points="782.33,-70.17 791.92,-65.67 781.61,-63.2 782.33,-70.17"/>
</g>
<!-- 140633866923816&#45;&gt;140633954328872 -->
<g id="edge25" class="edge">
<title>140633866923816&#45;&gt;140633954328872</title>
<path fill="none" stroke="black" d="M659.53,-131.98C671.64,-143.12 687.37,-157.6 700.69,-169.87"/>
<polygon fill="black" stroke="black" points="698.49,-172.6 708.22,-176.79 703.23,-167.45 698.49,-172.6"/>
</g>
<!-- 140633866923816&#45;&gt;140633954329488 -->
<g id="edge26" class="edge">
<title>140633866923816&#45;&gt;140633954329488</title>
<path fill="none" stroke="black" d="M665.93,-118.71C674.09,-120.2 683.26,-121.86 691.99,-123.45"/>
<polygon fill="black" stroke="black" points="691.49,-126.92 701.95,-125.26 692.74,-120.03 691.49,-126.92"/>
</g>
<!-- 140633866923816&#45;&gt;140633954331336 -->
<g id="edge27" class="edge">
<title>140633866923816&#45;&gt;140633954331336</title>
<path fill="none" stroke="black" d="M663.58,-102.74C672.53,-98.47 682.93,-93.51 692.73,-88.83"/>
<polygon fill="black" stroke="black" points="694.36,-91.94 701.87,-84.47 691.34,-85.62 694.36,-91.94"/>
</g>
<!-- 140633954330664&#45;&gt;140633954331280 -->
<g id="edge28" class="edge">
<title>140633954330664&#45;&gt;140633954331280</title>
<path fill="none" stroke="black" d="M2759.98,-71.8C2768.42,-74.77 2778,-78.15 2787.11,-81.36"/>
<polygon fill="black" stroke="black" points="2786.13,-84.72 2796.73,-84.74 2788.46,-78.12 2786.13,-84.72"/>
</g>
<!-- 140633954330664&#45;&gt;140633954329992 -->
<g id="edge29" class="edge">
<title>140633954330664&#45;&gt;140633954329992</title>
<path fill="none" stroke="black" d="M2759.98,-55.34C2768.42,-52.75 2778,-49.81 2787.11,-47.01"/>
<polygon fill="black" stroke="black" points="2788.19,-50.34 2796.73,-44.06 2786.14,-43.65 2788.19,-50.34"/>
</g>
<!-- 140633866922528&#45;&gt;140633949599840 -->
<g id="edge30" class="edge">
<title>140633866922528&#45;&gt;140633949599840</title>
<path fill="none" stroke="black" d="M4086.27,-64C4093.94,-64 4102.68,-64 4111.61,-64"/>
<polygon fill="black" stroke="black" points="4111.71,-67.5 4121.71,-64 4111.71,-60.5 4111.71,-67.5"/>
</g>
<!-- 140633949601576&#45;&gt;140633954360288 -->
<g id="edge31" class="edge">
<title>140633949601576&#45;&gt;140633954360288</title>
<path fill="none" stroke="black" d="M341.14,-105.49C348.65,-105.63 357.33,-105.79 366.6,-105.96"/>
<polygon fill="black" stroke="black" points="366.8,-109.47 376.86,-106.16 366.93,-102.47 366.8,-109.47"/>
</g>
<!-- 140633949601744&#45;&gt;140633949601016 -->
<g id="edge32" class="edge">
<title>140633949601744&#45;&gt;140633949601016</title>
<path fill="none" stroke="black" d="M846.29,-135C853.71,-135 862.34,-135 871.71,-135"/>
<polygon fill="black" stroke="black" points="871.72,-138.5 881.72,-135 871.72,-131.5 871.72,-138.5"/>
</g>
<!-- 140633949599392&#45;&gt;140633949601184 -->
<g id="edge33" class="edge">
<title>140633949599392&#45;&gt;140633949601184</title>
<path fill="none" stroke="black" d="M846.29,-63C867.94,-63 899.91,-63 930.42,-63"/>
<polygon fill="black" stroke="black" points="930.69,-66.5 940.69,-63 930.69,-59.5 930.69,-66.5"/>
</g>
<!-- 140633866921688&#45;&gt;140633949600568 -->
<g id="edge34" class="edge">
<title>140633866921688&#45;&gt;140633949600568</title>
<path fill="none" stroke="black" d="M1246.12,-63C1253.53,-63 1262.14,-63 1271.4,-63"/>
<polygon fill="black" stroke="black" points="1271.69,-66.5 1281.69,-63 1271.69,-59.5 1271.69,-66.5"/>
</g>
<!-- 140633949601408&#45;&gt;140633949600624 -->
<g id="edge35" class="edge">
<title>140633949601408&#45;&gt;140633949600624</title>
<path fill="none" stroke="black" d="M1604.14,-134.45C1611.75,-134.29 1620.53,-134.1 1629.78,-133.91"/>
<polygon fill="black" stroke="black" points="1630.05,-137.41 1639.97,-133.7 1629.9,-130.41 1630.05,-137.41"/>
</g>
<!-- 140633866706392&#45;&gt;140633949599672 -->
<g id="edge36" class="edge">
<title>140633866706392&#45;&gt;140633949599672</title>
<path fill="none" stroke="black" d="M2398.1,-63C2405.61,-63 2414.33,-63 2423.75,-63"/>
<polygon fill="black" stroke="black" points="2423.78,-66.5 2433.78,-63 2423.78,-59.5 2423.78,-66.5"/>
</g>
<!-- 140633866920960&#45;&gt;140633949601240 -->
<g id="edge37" class="edge">
<title>140633866920960&#45;&gt;140633949601240</title>
<path fill="none" stroke="black" d="M2941.18,-98.88C2948.54,-98.85 2957.13,-98.81 2966.51,-98.76"/>
<polygon fill="black" stroke="black" points="2966.57,-102.26 2976.56,-98.72 2966.54,-95.26 2966.57,-102.26"/>
</g>
<!-- 140633866921128&#45;&gt;140633949600232 -->
<g id="edge38" class="edge">
<title>140633866921128&#45;&gt;140633949600232</title>
<path fill="none" stroke="black" d="M3559.31,-64C3566.79,-64 3575.44,-64 3584.68,-64"/>
<polygon fill="black" stroke="black" points="3584.9,-67.5 3594.9,-64 3584.9,-60.5 3584.9,-67.5"/>
</g>
<!-- 140633866706280&#45;&gt;140633949601520 -->
<g id="edge39" class="edge">
<title>140633866706280&#45;&gt;140633949601520</title>
<path fill="none" stroke="black" d="M2073.14,-63C2080.65,-63 2089.33,-63 2098.6,-63"/>
<polygon fill="black" stroke="black" points="2098.86,-66.5 2108.86,-63 2098.86,-59.5 2098.86,-66.5"/>
</g>
<!-- 140633866922136&#45;&gt;140633949600400 -->
<g id="edge40" class="edge">
<title>140633866922136&#45;&gt;140633949600400</title>
<path fill="none" stroke="black" d="M3886,-64C3893.91,-64 3902.85,-64 3911.68,-64"/>
<polygon fill="black" stroke="black" points="3911.91,-67.5 3921.91,-64 3911.91,-60.5 3911.91,-67.5"/>
</g>
<!-- 140633954359616 -->
<g id="node39" class="node">
<title>140633954359616</title>
<ellipse fill="none" stroke="black" cx="27" cy="-62" rx="27" ry="27"/>
</g>
<!-- 140633954359616&#45;&gt;140633954361240 -->
<g id="edge41" class="edge">
<title>140633954359616&#45;&gt;140633954361240</title>
<path fill="none" stroke="black" d="M53.62,-66.89C61.37,-68.37 70.35,-70.08 79.82,-71.89"/>
<polygon fill="black" stroke="black" points="79.35,-75.36 89.83,-73.8 80.66,-68.49 79.35,-75.36"/>
</g>
<!-- 140633954359616&#45;&gt;140633866923032 -->
<g id="edge42" class="edge">
<title>140633954359616&#45;&gt;140633866923032</title>
<path fill="none" stroke="black" d="M54.05,-59.17C105.02,-53.62 218.04,-41.33 276.46,-34.97"/>
<polygon fill="black" stroke="black" points="277.14,-38.42 286.7,-33.86 276.38,-31.46 277.14,-38.42"/>
</g>
<!-- 140633949601072&#45;&gt;140633949600288 -->
<g id="edge43" class="edge">
<title>140633949601072&#45;&gt;140633949600288</title>
<path fill="none" stroke="black" d="M846.11,-206.54C915.13,-205.33 1102.5,-202.03 1181.78,-200.64"/>
<polygon fill="black" stroke="black" points="1181.85,-204.14 1191.79,-200.46 1181.73,-197.14 1181.85,-204.14"/>
</g>
<!-- 140633866703928&#45;&gt;140633866704544 -->
<g id="edge44" class="edge">
<title>140633866703928&#45;&gt;140633866704544</title>
<path fill="none" stroke="black" d="M1246.12,-135C1276.44,-135 1326.66,-135 1360.75,-135"/>
<polygon fill="black" stroke="black" points="1360.78,-138.5 1370.78,-135 1360.78,-131.5 1360.78,-138.5"/>
</g>
<!-- 140633866922024&#45;&gt;140633866920624 -->
<g id="edge45" class="edge">
<title>140633866922024&#45;&gt;140633866920624</title>
<path fill="none" stroke="black" d="M2941.29,-27.36C3015.96,-28.39 3229.43,-31.33 3314.94,-32.5"/>
<polygon fill="black" stroke="black" points="3314.9,-36 3324.95,-32.64 3315,-29 3314.9,-36"/>
</g>
<!-- 140633866922248&#45;&gt;140633866920400 -->
<g id="edge46" class="edge">
<title>140633866922248&#45;&gt;140633866920400</title>
<path fill="none" stroke="black" d="M3379.4,-95.2C3387.39,-94.66 3396.31,-94.05 3404.82,-93.47"/>
<polygon fill="black" stroke="black" points="3405.18,-96.95 3414.92,-92.78 3404.7,-89.97 3405.18,-96.95"/>
</g>
<!-- 140633866923480&#45;&gt;140633866703536 -->
<g id="edge47" class="edge">
<title>140633866923480&#45;&gt;140633866703536</title>
<path fill="none" stroke="black" d="M1604.23,-63C1655.69,-63 1769.95,-63 1828.65,-63"/>
<polygon fill="black" stroke="black" points="1828.93,-66.5 1838.93,-63 1828.93,-59.5 1828.93,-66.5"/>
</g>
<!-- 140633866923312&#45;&gt;140633866923536 -->
<g id="edge48" class="edge">
<title>140633866923312&#45;&gt;140633866923536</title>
<path fill="none" stroke="black" d="M1892.93,-125.05C1901.09,-124.13 1910.26,-123.08 1918.99,-122.09"/>
<polygon fill="black" stroke="black" points="1919.41,-125.57 1928.95,-120.96 1918.62,-118.61 1919.41,-125.57"/>
</g>
</g>
</svg>
